<?xml version="1.0" standalone="no"?>
<!DOCTYPE svg PUBLIC "-//W3C//DTD SVG 20010904//EN"
 "http://www.w3.org/TR/2001/REC-SVG-20010904/DTD/svg10.dtd">
<svg version="1.0" xmlns="http://www.w3.org/2000/svg"
 width="300.000000pt" height="301.000000pt" viewBox="0 0 300.000000 301.000000"
 preserveAspectRatio="xMidYMid meet">
<metadata>
Created by potrace 1.10, written by Peter Selinger 2001-2011
</metadata>
<g transform="translate(0.000000,301.000000) scale(0.050000,-0.050000)"
fill="white" stroke="white" stroke-width="200">
<path d="M2683 5719 c-1134 -203 -1910 -1386 -1572 -2395 208 -619 892 -1597
1726 -2469 161 -168 167 -167 335 10 1123 1186 1796 2282 1794 2925 -2 1176
-1136 2134 -2283 1929z m826 -248 c749 -223 1255 -897 1257 -1671 2 -618 -525
-1484 -1675 -2750 l-91 -100 -91 100 c-1150 1266 -1677 2132 -1675 2750 3
1167 1148 2008 2275 1671z"/>
<path d="M2810 5102 c-284 -132 -294 -188 -220 -1262 68 -979 99 -1060 410
-1060 268 0 344 126 380 630 12 176 40 541 61 811 44 547 38 608 -72 752 -114
150 -382 211 -559 129z m296 -164 c75 -39 152 -122 173 -186 30 -92 -102
-1653 -145 -1719 -64 -97 -230 -82 -272 24 -20 52 -142 1426 -142 1606 0 202
222 359 386 275z"/>
<path d="M2906 2479 c-150 -45 -266 -234 -238 -385 60 -318 491 -375 632 -84
124 255 -124 549 -394 469z m194 -219 c85 -85 18 -260 -100 -260 -19 0 -58 19
-87 41 -106 84 -47 259 87 259 33 0 78 -18 100 -40z"/>
<path d="M1685 1070 c-615 -117 -830 -314 -548 -504 596 -401 3394 -370 3781
42 167 178 -13 339 -495 441 -458 96 -577 90 -560 -31 10 -61 32 -69 327 -115
469 -73 653 -150 519 -218 -562 -282 -3230 -263 -3469 25 -45 54 227 142 625
202 243 36 275 50 275 116 0 106 -81 113 -455 42z"/>
</g>
</svg>