<svg width="23" height="21" viewBox="0 0 23 21" fill="none" xmlns="http://www.w3.org/2000/svg">
    <path
        d="M11.3093 7.57616V11.5484M11.3093 15.5206H11.3193M9.93427 2.50335L1.76651 16.6113C1.31347 17.3938 1.08695 17.7851 1.12043 18.1062C1.14963 18.3863 1.29638 18.6408 1.52414 18.8064C1.78527 18.9963 2.23737 18.9963 3.14157 18.9963H19.4771C20.3813 18.9963 20.8334 18.9963 21.0945 18.8064C21.3223 18.6408 21.469 18.3863 21.4983 18.1062C21.5317 17.7851 21.3052 17.3938 20.8522 16.6113L12.6844 2.50335C12.233 1.72364 12.0073 1.33379 11.7128 1.20285C11.456 1.08863 11.1627 1.08863 10.9059 1.20285C10.6114 1.33379 10.3857 1.72364 9.93427 2.50335Z"
        stroke-width="2.23438" stroke-linecap="round" stroke-linejoin="round" />
</svg>