<?xml version="1.0" encoding="UTF-8" standalone="no"?>
<svg
    height="18"
    width="20"
    version="1.1"
    xmlns="http://www.w3.org/2000/svg"
    xmlns:svg="http://www.w3.org/2000/svg">
    <g
        transform="matrix(0.02,0,0,0.02,0,-1)">
        <path
            fill="currentColor"
            d="m 426,50 c 13.333,0 20,6.667 20,20 0,0 0,860 0,860 0,13.333 -6.667,20 -20,20 0,0 -46,0 -46,0 -13.333,0 -20,-6.667 -20,-20 0,0 0,-440 0,-440 0,0 -176,0 -176,0 -10.667,0 -20,-2 -28,-6 -8,-1.333 -16.667,-5.333 -26,-12 0,0 -120,-82 -120,-82 -6.667,-4 -10,-9.333 -10,-16 0,-6.667 3.333,-12 10,-16 0,0 120,-82 120,-82 9.333,-6.667 18,-10.667 26,-12 5.333,-2.667 14.667,-4 28,-4 0,0 176,0 176,0 0,0 0,-190 0,-190 0,-13.333 6.667,-20 20,-20 0,0 46,0 46,0 0,0 0,0 0,0 m 564,208 c 6.667,4 10,9.333 10,16 0,6.667 -3.333,12 -10,16 0,0 -118,82 -118,82 -14.667,8 -23.333,12 -26,12 -9.333,4 -18.667,6 -28,6 0,0 -302,0 -302,0 0,0 -40,-230 -40,-230 0,0 342,0 342,0 12,0 21.333,1.333 28,4 6.667,2.667 15.333,6.667 26,12 0,0 118,82 118,82"
        />
    </g>
</svg>