<svg width="15" height="15" viewBox="0 0 15 15" fill="none" xmlns="http://www.w3.org/2000/svg">
<path d="M13.5569 10.0004C13.1328 11.0034 12.4695 11.8873 11.6249 12.5746C10.7802 13.262 9.78012 13.7321 8.71189 13.9436C7.64367 14.1552 6.53988 14.1019 5.49703 13.7883C4.45418 13.4747 3.50402 12.9105 2.72962 12.1449C1.95521 11.3793 1.38014 10.4356 1.05469 9.39641C0.729239 8.35721 0.66331 7.2541 0.862667 6.18353C1.06202 5.11296 1.5206 4.10753 2.1983 3.25513C2.876 2.40273 3.75219 1.72932 4.75027 1.29378M13.5761 4.85589C13.843 5.5002 14.0067 6.18135 14.0623 6.87434C14.076 7.04554 14.0829 7.13114 14.0489 7.20825C14.0205 7.27266 13.9642 7.33361 13.9023 7.36706C13.8281 7.40711 13.7355 7.40711 13.5503 7.40711H7.95027C7.76359 7.40711 7.67024 7.40711 7.59894 7.37078C7.53622 7.33882 7.48522 7.28783 7.45327 7.22511C7.41694 7.1538 7.41694 7.06046 7.41694 6.87378V1.27378C7.41694 1.08853 7.41694 0.99591 7.45698 0.921765C7.49044 0.859829 7.55139 0.803569 7.6158 0.775172C7.69291 0.741177 7.77851 0.74804 7.94971 0.761766C8.64269 0.817324 9.32385 0.981032 9.96816 1.24791C10.777 1.58294 11.5119 2.07401 12.131 2.69307C12.75 3.31212 13.2411 4.04705 13.5761 4.85589Z" stroke="#344054" stroke-width="1.5" stroke-linecap="round" stroke-linejoin="round"/>
</svg>
