<svg width="21" height="21" viewBox="0 0 21 21" fill="none" xmlns="http://www.w3.org/2000/svg">
    <path
        d="M7.61523 6.11523L12.6152 11.1152M12.6152 6.11523L7.61523 11.1152M5.11523 16.1152V18.4507C5.11523 18.9836 5.11523 19.25 5.22446 19.3868C5.31946 19.5059 5.4635 19.5751 5.61577 19.5749C5.79086 19.5747 5.9989 19.4083 6.41499 19.0754L8.80045 17.1671C9.28775 16.7772 9.5314 16.5823 9.80272 16.4437C10.0434 16.3207 10.2997 16.2308 10.5644 16.1765C10.8629 16.1152 11.1749 16.1152 11.799 16.1152H14.3152C15.9954 16.1152 16.8355 16.1152 17.4772 15.7883C18.0417 15.5006 18.5006 15.0417 18.7883 14.4772C19.1152 13.8355 19.1152 12.9954 19.1152 11.3152V5.91523C19.1152 4.23508 19.1152 3.395 18.7883 2.75326C18.5006 2.18878 18.0417 1.72983 17.4772 1.44221C16.8355 1.11523 15.9954 1.11523 14.3152 1.11523H5.91523C4.23508 1.11523 3.395 1.11523 2.75326 1.44221C2.18878 1.72983 1.72983 2.18878 1.44221 2.75326C1.11523 3.395 1.11523 4.23508 1.11523 5.91523V12.1152C1.11523 13.0452 1.11523 13.5102 1.21746 13.8917C1.49486 14.927 2.3035 15.7356 3.33878 16.013C3.72028 16.1152 4.18526 16.1152 5.11523 16.1152Z"
        stroke-width="2.23" stroke-linecap="round" stroke-linejoin="round" />
</svg>