<?xml version="1.0" encoding="UTF-8" standalone="no"?>
<svg
    width="22.09696"
    height="22.098087"
    viewBox="0 0 22.09696 22.098087"
    fill="none"
    version="1.1"
    xmlns="http://www.w3.org/2000/svg"
    xmlns:svg="http://www.w3.org/2000/svg">
    <path
        d="m 9.06219,1.118058 h 3.97222 m 7.94449,7.94444 v 3.97227 m -3.97227,7.9444 c 0.92352,0 1.38527,0 1.76417,-0.1015 1.028,-0.2755 1.8311,-1.0785 2.1065,-2.1066 0.1016,-0.3789 0.1016,-0.8406 0.1016,-1.7641 m 0,-11.91669 c 0,-0.92351 0,-1.38527 -0.1016,-1.76412 -0.2754,-1.02809 -1.0785,-1.83111 -2.1065,-2.10659 -0.3789,-0.10151 -0.84065,-0.10151 -1.76417,-0.10151"
        stroke="#4a5565"
        stroke-width="2.23438"
        stroke-linecap="round"
        stroke-linejoin="round"
    />
    <path
        d="M 13.0332,20.9785 H 9.06098 M 1.11654,13.0341 V 9.06185 M 5.08876,1.1174 c -0.92351,0 -1.38527,0 -1.76412,0.10152 C 2.29655,1.49439 1.49352,2.29742 1.21805,3.32551 1.11654,3.70436 1.11654,4.16611 1.11654,5.08963 m 0,11.91667 c 0,0.9235 0,1.3853 0.10151,1.7641 0.27547,1.0281 1.0785,1.8311 2.10659,2.1066 0.37885,0.1015 0.8406,0.1015 1.76412,0.1015"
        stroke="#4a5565"
        stroke-width="2.23438"
        stroke-linecap="round"
        stroke-linejoin="round"
     />
</svg>