<?xml version="1.0" encoding="UTF-8" standalone="no"?>
<svg
    version="1.1"
    viewBox="0 0 24 28.50256"
    width="24"
    height="28.50256"
    xmlns="http://www.w3.org/2000/svg"
    xmlns:svg="http://www.w3.org/2000/svg">
    <g transform="matrix(0.3003431,0,0,0.3003431,-3.0354785,-0.75085775)">
        <path
            d="m 90,61.4 c -0.1,-1 -0.7,-1.9 -1.7,-2.3 L 66.7,48.2 c 4.2,-8.6 7.4,-16.8 7.4,-21.7 0,-13.2 -10.8,-24 -24,-24 -13.2,0 -24,10.8 -24,24 0,5.4 3.9,14.8 8.7,24.4 l -14.2,2.4 c -1,0.2 -1.8,0.8 -2.3,1.7 l -7.9,17.4 c -0.7,1.4 -0.1,3.2 1.3,3.9 L 49.4,97 c 0.5,0.2 1,0.4 1.5,0.4 0.2,0 0.4,0 0.6,-0.1 l 32.2,-6.6 c 0.9,-0.2 1.7,-0.8 2.1,-1.6 0.4,-0.8 0.4,-1.8 0.1,-2.6 l -6.4,-14.3 9.6,-8.3 c 0.6,-0.5 1,-1.5 0.9,-2.5 z M 50,8.6 c 9.9,0 17.9,8 17.9,17.9 0,5.4 -6.1,19.2 -16.3,36.9 -0.5,0.8 -1.3,0.9 -1.6,0.9 -0.3,0 -1.1,-0.1 -1.6,-0.9 C 38.2,45.7 32.1,31.9 32.1,26.5 32.1,16.6 40.1,8.6 50,8.6 Z m 23.7,60.6 c -1,0.9 -1.3,2.3 -0.8,3.5 L 78.7,85.6 51.3,91.2 17,72.4 23.1,59 37.6,56.5 c 1.8,3.4 3.7,6.8 5.5,9.9 1.4,2.5 4,4 6.9,4 2.9,0 5.4,-1.5 6.9,-4 2.3,-4 4.8,-8.4 7.1,-12.8 l 17.6,8.8 z"
        />
        <path
            d="m 61.6,26.5 c 0,-6.4 -5.2,-11.6 -11.6,-11.6 -6.4,0 -11.6,5.2 -11.6,11.6 0,6.4 5.2,11.6 11.6,11.6 6.4,0 11.6,-5.2 11.6,-11.6 z m -17.1,0 c 0,-3 2.5,-5.5 5.5,-5.5 3,0 5.5,2.5 5.5,5.5 0,3 -2.5,5.5 -5.5,5.5 -3,0 -5.5,-2.4 -5.5,-5.5 z"
        />
    </g>
</svg>