<?xml version="1.0" encoding="utf-8"?><!-- Uploaded to: SVG Repo, www.svgrepo.com, Generator: SVG Repo Mixer Tools -->
<svg width="800px" height="800px" viewBox="0 0 100 100" xmlns="http://www.w3.org/2000/svg" xmlns:xlink="http://www.w3.org/1999/xlink" aria-hidden="true" role="img" class="iconify iconify--gis" preserveAspectRatio="xMidYMid meet"><path d="M0 4.5v20h8.5V27h3v-2.5H20v-20zm5 5h10v10H5zM22.5 13v3h6v-3zm9 0v3h6v-3zm9 0v3h6v-3zm9 0v3h6v-3zm9 0v3h6v-3zm9 0v3h6v-3zm9 0v3h6v-3zm9 0v3h6v-3zm3 6v6h3v-6zm0 9v6h3v-6zm-80 2v6h3v-6zm80 7v6h3v-6zm-80 2v6h3v-6zm80 7v6h3v-6zm-80 2v6h3v-6zm80 7v6h3v-6zm-80 2v6h3v-6zm80 7v6h3v-6zm-80 2v6h3v-6zm80 7v2.5H80v20h20v-20h-8.5V73zm-80 2v6h3v-6zM85 80.5h10v10H85zM8.5 84v3h6v-3H10zm9 0v3h6v-3zm9 0v3h6v-3zm9 0v3h6v-3zm9 0v3h6v-3zm9 0v3h6v-3zm9 0v3h6v-3zm9 0v3h6v-3z" fill="#000000"></path></svg>